<svg width="290.54" height="297.9875" xmlns="http://www.w3.org/2000/svg" clip-rule="evenodd">
 <defs>
  <style type="text/css">.fil0 {fill:black}</style>
 </defs>
 <g>
  <title>background</title>
  <rect fill="none" id="canvas_background" height="299.9875" width="292.54" y="-1" x="-1"/>
 </g>
 <g>
  <title>Layer 1</title>
  <g id="svg_1">
   <path id="svg_2" d="m102.2,191.77c-0.17,-51.13 -0.97,-105.56 -0.97,-156.76c63.02,-12 126.04,-23.01 189.06,-35.01c0,65.35 -0.95,136.4 -0.07,202.95c3.63,35.98 -24.6,67.36 -60.89,67.36c-33.8,0 -61.2,-27.4 -61.2,-61.2c0,-33.8 27.4,-61.2 61.2,-61.2c15.75,0 30.11,5.95 40.95,15.72l0,-94.62l-148.04,28.01c-0.94,44.03 -1,92.45 -0.18,133.75c3.71,36.09 -24.4,67.61 -60.86,67.61c-33.8,0 -61.2,-27.4 -61.2,-61.2c0,-33.8 27.4,-61.2 61.2,-61.2c15.78,0 30.16,5.97 41.01,15.77l-0.01,0.02zm12.2,-112.51c0,4.39 -6.67,4.39 -6.67,0l0,-37.18c0,-1.72 1.31,-3.15 3,-3.32l55.24,-11.21c4.32,-0.73 5.43,5.83 1.12,6.56l-52.68,10.77l0,34.39l-0.01,-0.01zm79.37,159.6c3.9,5.26 -4.1,11.2 -8.01,5.94c-22.9,-30.87 -8.89,-75.71 28.27,-87.55c6.26,-1.97 9.24,7.53 3.01,9.5c-30.51,9.73 -42.07,46.75 -23.27,72.11zm-167.2,26.69c3.9,5.26 -4.1,11.2 -8.01,5.94c-22.9,-30.87 -8.89,-75.71 28.27,-87.55c6.26,-1.97 9.24,7.53 3.01,9.5c-30.51,9.73 -42.07,46.75 -23.27,72.11z" class="fil0"/>
  </g>
 </g>
</svg>